<svg width="203" height="192" viewBox="0 0 203 192" fill="none" xmlns="http://www.w3.org/2000/svg">
<g clip-path="url(#clip0_44_2895)">
<path d="M170.917 84.1597C171.202 85.0651 171.456 85.3371 171.496 85.7073C168.663 110.694 158.008 131.622 137.789 146.959C132.693 150.845 126.697 153.33 120.22 154.481C106.36 157.07 93.0289 150.614 86.4492 138.22C82.9832 131.78 80.7949 125.014 81.796 117.565C84.7101 115.714 87.6731 113.969 90.2747 112.002C94.5035 108.772 97.2376 104.544 97.5885 99.0755C97.9421 95.03 96.4726 91.8189 93.973 90.8915C90.6923 89.6743 87.6896 91.0485 85.8598 93.5687C83.3098 97.0659 81.1702 100.893 79.294 104.729C78.0985 107.218 77.4695 110.095 76.7426 112.758C63.7916 116.484 53.4028 107.386 52.1733 91.3788C53.6932 90.1654 55.3203 88.9029 56.7913 87.5825C62.1388 82.5462 65.1523 76.3774 64.4654 68.9245C64.1967 66.07 63.2938 63.2468 60.0621 62.1367C57.6114 61.3163 54.6087 62.6905 52.3897 65.7772C48.9446 70.7196 47.5305 76.4154 46.6923 82.2361C46.4619 84.2834 46.2315 86.3306 46.1083 88.3288C26.3615 94.7764 5.37314 84.0569 5.33655 64.1377C3.9914 64.8827 2.76276 65.3155 2.31524 66.0381C1.80947 66.9169 1.91933 68.2906 2.1457 69.3521C4.59345 79.2355 9.53555 87.2008 19.3684 91.1155C26.7017 94.1029 34.3237 94.8869 42.2648 94.1008C43.3769 93.9803 44.489 93.8597 45.6501 93.8461C45.7573 93.7971 45.9625 93.962 46.4802 94.243C46.8138 95.2554 47.3526 96.4328 47.677 97.7084C51.9887 113.082 59.2782 118.808 75.7204 119.31C75.8792 120.791 76.136 122.485 76.2366 124.122C77.22 133.64 80.7773 141.98 87.3863 149.053C98.1113 160.586 113.817 164.014 129.057 158.205C137.345 155.059 144.43 150.134 150.614 143.809C165.505 128.45 174.478 110.363 175.873 88.7531C176.017 87.6514 176.005 86.4917 176.149 85.39C176.208 85.2339 176.373 85.0287 176.87 84.4132C179.393 87.6598 180.639 91.2323 181.992 94.7557C183.403 98.1229 184.649 101.695 186.1 105.433C188.741 103.836 189.128 101.846 188.938 99.7323C188.602 97.2971 188.48 94.7637 187.608 92.5739C185.177 86.6957 182.591 80.7595 179.575 75.0196C177.147 70.5642 174.092 70.4085 171.27 74.1599C165.342 82.1802 159.464 90.3074 153.585 98.4347C152.641 99.7728 152.009 101.227 151.047 103.091C154.337 104.046 155.661 102.404 156.927 100.919C161.346 95.2714 165.913 89.9453 170.917 84.1597ZM58.3143 66.8201C60.729 74.6474 58.1167 81.4094 51.6147 84.7733C52.5787 78.3772 53.3189 72.3425 58.3143 66.8201ZM91.4932 95.3922C92.8818 102.394 89.9637 107.355 83.1281 109.706C84.6984 104.068 86.2992 99.0636 91.4932 95.3922Z" fill="#E5CE68"/>
</g>
<defs>
<clipPath id="clip0_44_2895">
<rect width="137.143" height="160" fill="white" transform="matrix(0.416124 0.909308 0.909308 -0.416124 0 66.5798)"/>
</clipPath>
</defs>
</svg>
