<svg width="44" height="44" viewBox="0 0 44 44" fill="none" xmlns="http://www.w3.org/2000/svg">
<rect width="44" height="44" rx="22" fill="#E5CE68"/>
<path d="M31.1663 21.1667H29.4997V19.5001H27.833V21.1667H26.1663V22.8334H27.833V24.5001H29.4997V22.8334H31.1663M18.6663 21.1667V23.1667H21.9997C21.833 24.0001 20.9997 25.6667 18.6663 25.6667C16.6663 25.6667 15.083 24.0001 15.083 22.0001C15.083 20.0001 16.6663 18.3334 18.6663 18.3334C19.833 18.3334 20.583 18.8334 20.9997 19.2501L22.583 17.7501C21.583 16.7501 20.2497 16.1667 18.6663 16.1667C15.4163 16.1667 12.833 18.7501 12.833 22.0001C12.833 25.2501 15.4163 27.8334 18.6663 27.8334C21.9997 27.8334 24.2497 25.5001 24.2497 22.1667C24.2497 21.7501 24.2497 21.5001 24.1663 21.1667H18.6663Z" fill="#181717"/>
</svg>
