<svg width="48" height="48" viewBox="0 0 48 48" fill="none" xmlns="http://www.w3.org/2000/svg">
<path d="M12.52 42.776H12C10.114 42.776 9.172 42.776 8.586 42.19C8 41.606 8 40.664 8 38.778V36.554C8 35.518 8 35 8.266 34.536C8.532 34.074 8.934 33.84 9.738 33.372C15.03 30.294 22.542 28.562 27.558 31.552C27.894 31.754 28.198 31.998 28.458 32.288C28.7266 32.5824 28.9335 32.9276 29.0665 33.3032C29.1996 33.6789 29.256 34.0774 29.2325 34.4752C29.209 34.873 29.1061 35.2621 28.9298 35.6194C28.7535 35.9768 28.5074 36.2953 28.206 36.556C27.9656 36.7845 27.6721 36.9494 27.352 37.036C27.592 37.008 27.822 36.976 28.042 36.942C29.864 36.652 31.394 35.676 32.794 34.618L36.41 31.888C37.0551 31.4188 37.8323 31.166 38.63 31.166C39.4277 31.166 40.2049 31.4188 40.85 31.888C41.996 32.754 42.348 34.18 41.622 35.344C40.776 36.7 39.584 38.434 38.44 39.494C37.294 40.554 35.588 41.502 34.196 42.174C32.652 42.92 30.948 43.348 29.214 43.63C25.698 44.198 22.034 44.11 18.554 43.394C16.5686 42.9858 14.547 42.7774 12.52 42.776ZM13.172 5.172C12.438 5.906 12.164 6.918 12.062 8.5C13.2344 8.48395 14.3542 8.01095 15.1831 7.18168C16.012 6.35242 16.4845 5.23239 16.5 4.06C14.92 4.164 13.906 4.438 13.172 5.172ZM34.828 5.172C34.094 4.438 33.082 4.164 31.5 4.062C31.5161 5.23438 31.989 6.3542 32.8183 7.18309C33.6476 8.01198 34.7676 8.48447 35.94 8.5C35.836 6.92 35.562 5.906 34.828 5.172ZM34.828 18.828C34.094 19.562 33.082 19.836 31.5 19.938C31.5161 18.7656 31.989 17.6458 32.8183 16.8169C33.6476 15.988 34.7676 15.5155 35.94 15.5C35.836 17.08 35.562 18.094 34.828 18.828ZM13.172 18.828C13.906 19.562 14.918 19.836 16.5 19.938C16.4839 18.7656 16.0109 17.6458 15.1817 16.8169C14.3524 15.988 13.2324 15.5155 12.06 15.5C12.164 17.08 12.438 18.094 13.172 18.828Z" fill="#260026"/>
<path fill-rule="evenodd" clip-rule="evenodd" d="M12 11.5C13.9891 11.5 15.8968 10.7098 17.3033 9.3033C18.7098 7.89678 19.5 5.98912 19.5 4H28.5C28.5 5.98912 29.2902 7.89678 30.6967 9.3033C32.1032 10.7098 34.0109 11.5 36 11.5V12.5C34.0109 12.5 32.1032 13.2902 30.6967 14.6967C29.2902 16.1032 28.5 18.0109 28.5 20H19.5C19.5 18.0109 18.7098 16.1032 17.3033 14.6967C15.8968 13.2902 13.9891 12.5 12 12.5V11.5ZM24 14C24.5304 14 25.0391 13.7893 25.4142 13.4142C25.7893 13.0391 26 12.5304 26 12C26 11.4696 25.7893 10.9609 25.4142 10.5858C25.0391 10.2107 24.5304 10 24 10C23.4696 10 22.9609 10.2107 22.5858 10.5858C22.2107 10.9609 22 11.4696 22 12C22 12.5304 22.2107 13.0391 22.5858 13.4142C22.9609 13.7893 23.4696 14 24 14Z" fill="#260026"/>
</svg>
