<svg width="96" height="29" viewBox="0 0 96 29" fill="none" xmlns="http://www.w3.org/2000/svg">
<path d="M95.4396 23.7383C95.5712 23.4956 95.4811 23.1921 95.2383 23.0604L91.2823 20.9156C91.0396 20.784 90.7361 20.8741 90.6045 21.1169C90.4728 21.3596 90.563 21.6631 90.8057 21.7947L94.3221 23.7012L92.4156 27.2177C92.284 27.4604 92.3741 27.7639 92.6169 27.8955C92.8596 28.0272 93.1631 27.9371 93.2947 27.6943L95.4396 23.7383ZM0.677565 0.882146C8.666 7.62239 19.4273 17.2299 34.6164 23.2276C49.8234 29.2323 69.4383 31.6102 95.1423 23.9793L94.8577 23.0207C69.3617 30.5898 49.9766 28.2177 34.9836 22.2974C19.9727 16.3701 9.334 6.87761 1.32244 0.117854L0.677565 0.882146Z" fill="#E1E0E0"/>
</svg>
