<svg width="48" height="48" viewBox="0 0 48 48" fill="none" xmlns="http://www.w3.org/2000/svg">
<path d="M40 37H27.7086C26.5077 33.1088 25.9073 29.0762 25.9073 24.902C25.9073 20.6571 27.0022 17.2966 29.1921 14.8204C31.4525 12.2735 34.7726 11 39.1523 11V16.9429C35.6203 16.9429 33.8543 19.1007 33.8543 23.4163V25.4326H40V37ZM22.0927 37H9.80132C8.60044 33.1088 8 29.0762 8 24.902C8 20.6571 9.09492 17.2966 11.2848 14.8204C13.5453 12.2735 16.8653 11 21.245 11V16.9429C17.713 16.9429 15.947 19.1007 15.947 23.4163V25.4326H22.0927V37Z" fill="white"/>
</svg>
