<svg width="44" height="44" viewBox="0 0 44 44" fill="none" xmlns="http://www.w3.org/2000/svg">
<rect width="44" height="44" rx="22" fill="#E5CE68"/>
<path d="M30.3337 16.9266C29.7202 17.2055 29.059 17.3887 28.3738 17.4763C29.0749 17.0541 29.6166 16.3849 29.8716 15.5802C29.2103 15.9786 28.4774 16.2574 27.7046 16.4167C27.0752 15.7316 26.1909 15.3333 25.1871 15.3333C23.3149 15.3333 21.7852 16.8629 21.7852 18.751C21.7852 19.0219 21.8171 19.2848 21.8729 19.5318C19.0367 19.3884 16.5112 18.0261 14.8302 15.9626C14.5354 16.4645 14.3681 17.0541 14.3681 17.6755C14.3681 18.8626 14.9656 19.9142 15.8897 20.5117C15.3241 20.5117 14.7983 20.3524 14.3362 20.1134V20.1373C14.3362 21.7944 15.5153 23.1806 17.0768 23.4913C16.5755 23.6285 16.0492 23.6476 15.5392 23.5471C15.7556 24.2262 16.1794 24.8205 16.751 25.2464C17.3226 25.6722 18.0133 25.9082 18.7259 25.9212C17.5179 26.8776 16.0204 27.3945 14.4796 27.3871C14.2087 27.3871 13.9379 27.3712 13.667 27.3393C15.1807 28.3113 16.9812 28.8769 18.9092 28.8769C25.1871 28.8769 28.6367 23.6666 28.6367 19.1494C28.6367 18.998 28.6367 18.8546 28.6288 18.7032C29.298 18.2252 29.8716 17.6197 30.3337 16.9266Z" fill="#181717"/>
</svg>
