<svg width="20" height="20" viewBox="0 0 20 20" fill="none" xmlns="http://www.w3.org/2000/svg">
<path d="M4.24411 4.68729C4.24417 4.42224 4.33653 4.16547 4.50534 3.96112C4.67414 3.75677 4.90885 3.61758 5.16912 3.56747C5.4294 3.51737 5.699 3.55947 5.93161 3.68654C6.16422 3.81362 6.34531 4.01773 6.44378 4.26382L6.54424 4.51358C6.11404 4.82812 5.78053 5.25685 5.58149 5.7512C5.29843 6.44508 5.29344 7.22131 5.56754 7.91878C5.59329 7.98398 5.63188 8.04334 5.68102 8.09334C5.73017 8.14334 5.78885 8.18296 5.8536 8.20983C5.91835 8.23671 5.98784 8.2503 6.05794 8.24979C6.12805 8.24929 6.19734 8.2347 6.26169 8.2069L10.4196 6.41675C10.5445 6.3631 10.6435 6.26299 10.6959 6.13761C10.7482 6.01223 10.7497 5.8714 10.7001 5.74492C10.5671 5.40171 10.3671 5.08843 10.1117 4.82336C9.85635 4.55828 9.55074 4.34673 9.21272 4.20104C8.66969 3.96801 8.06489 3.92093 7.49233 4.06709L7.41559 3.87524C7.22689 3.40322 6.87966 3.01167 6.43359 2.76789C5.98751 2.52412 5.47045 2.44334 4.97128 2.53944C4.4721 2.63555 4.02199 2.90253 3.69831 3.2945C3.37464 3.68647 3.1976 4.17895 3.19764 4.68729V9.47661H3.02323C2.88446 9.47661 2.75138 9.53174 2.65325 9.62986C2.55513 9.72799 2.5 9.86108 2.5 9.99985C2.5 10.1386 2.55513 10.2717 2.65325 10.3698C2.75138 10.468 2.88446 10.5231 3.02323 10.5231H3.19764V10.7707C3.19764 11.0324 3.19764 11.1858 3.20881 11.3568C3.30787 12.9174 4.15062 14.358 5.37289 15.2998C5.363 15.3152 5.35392 15.331 5.34569 15.3473L4.64804 16.7426C4.58733 16.8666 4.5781 17.0095 4.62234 17.1403C4.66659 17.2711 4.76074 17.3791 4.88426 17.4408C5.00779 17.5024 5.15068 17.5128 5.28181 17.4696C5.41293 17.4263 5.52165 17.333 5.58428 17.21L6.2596 15.86C6.82166 16.1471 7.43184 16.328 8.05952 16.3937C8.23044 16.4112 8.33439 16.4147 8.51159 16.4217H8.51647C9.03273 16.4412 9.53782 16.453 9.99966 16.453C10.4615 16.453 10.9666 16.4412 11.4829 16.4217H11.4877C11.6649 16.4147 11.7696 16.4112 11.9398 16.3937C12.5675 16.328 13.1777 16.1471 13.7397 15.86L14.415 17.2107C14.4458 17.2722 14.4883 17.327 14.5403 17.372C14.5922 17.417 14.6525 17.4514 14.7177 17.4731C14.7829 17.4949 14.8517 17.5036 14.9203 17.4987C14.9888 17.4938 15.0558 17.4755 15.1172 17.4447C15.1787 17.414 15.2335 17.3715 15.2786 17.3195C15.3236 17.2676 15.3579 17.2073 15.3797 17.1421C15.4014 17.0769 15.4101 17.0081 15.4052 16.9395C15.4004 16.871 15.382 16.804 15.3513 16.7426L14.6536 15.3473C14.6456 15.331 14.6367 15.3152 14.6271 15.2998C15.8487 14.358 16.6922 12.9167 16.7912 11.3568C16.8017 11.1858 16.8017 11.0324 16.8017 10.7707V10.7442C16.8017 10.7024 16.8017 10.6584 16.7989 10.6187C16.7969 10.5867 16.7936 10.5548 16.7891 10.5231H16.9761C17.1149 10.5231 17.248 10.468 17.3461 10.3698C17.4442 10.2717 17.4993 10.1386 17.4993 9.99985C17.4993 9.86108 17.4442 9.72799 17.3461 9.62986C17.248 9.53174 17.1149 9.47661 16.9761 9.47661H4.24411V4.68729Z" fill="#E5CE68"/>
</svg>
