<svg width="20" height="20" viewBox="0 0 20 20" fill="none" xmlns="http://www.w3.org/2000/svg">
<path d="M2.29199 15.8333C2.11144 15.8333 1.96213 15.7743 1.84408 15.6562C1.72602 15.5382 1.66699 15.3888 1.66699 15.2083V10.5208C1.66699 10.1736 1.73644 9.84718 1.87533 9.54163C2.01421 9.23607 2.22255 8.98607 2.50033 8.79163V6.37496C2.50033 5.74996 2.71213 5.22565 3.13574 4.80204C3.55935 4.37843 4.08366 4.16663 4.70866 4.16663H8.45866C8.76422 4.16663 9.04894 4.23607 9.31283 4.37496C9.57672 4.51385 9.80588 4.70135 10.0003 4.93746C10.1948 4.70135 10.4205 4.51385 10.6774 4.37496C10.9344 4.23607 11.2156 4.16663 11.5212 4.16663H15.2712C15.8962 4.16663 16.4239 4.37843 16.8545 4.80204C17.285 5.22565 17.5003 5.74996 17.5003 6.37496V8.79163C17.7781 8.98607 17.9864 9.23607 18.1253 9.54163C18.2642 9.84718 18.3337 10.1736 18.3337 10.5208V15.2083C18.3337 15.3888 18.2746 15.5382 18.1566 15.6562C18.0385 15.7743 17.8892 15.8333 17.7087 15.8333C17.5281 15.8333 17.3788 15.7743 17.2607 15.6562C17.1427 15.5382 17.0837 15.3888 17.0837 15.2083V14.1666H2.91699V15.2083C2.91699 15.3888 2.85796 15.5382 2.73991 15.6562C2.62185 15.7743 2.47255 15.8333 2.29199 15.8333ZM10.6253 8.43746H16.2503V6.37496C16.2503 6.09718 16.1566 5.86801 15.9691 5.68746C15.7816 5.5069 15.5489 5.41663 15.2712 5.41663H11.4587C11.2225 5.41663 11.0246 5.51385 10.8649 5.70829C10.7052 5.90274 10.6253 6.12496 10.6253 6.37496V8.43746ZM3.75033 8.43746H9.37533V6.37496C9.37533 6.12496 9.29547 5.90274 9.13574 5.70829C8.97602 5.51385 8.7781 5.41663 8.54199 5.41663H4.70866C4.44477 5.41663 4.21908 5.51038 4.03158 5.69788C3.84408 5.88538 3.75033 6.11107 3.75033 6.37496V8.43746Z" fill="#E5CE68"/>
</svg>
