<svg width="48" height="48" viewBox="0 0 48 48" fill="none" xmlns="http://www.w3.org/2000/svg">
<path d="M23.8201 28H39.5061C40.6996 28 41.8442 28.4741 42.6881 29.318C43.532 30.1619 44.0061 31.3065 44.0061 32.5V34.31C44.0061 35.3908 43.7725 36.4588 43.3213 37.4409C42.8701 38.4229 42.212 39.2959 41.3921 40C38.2601 42.69 33.7801 44.004 28.0001 44.004H27.6421C27.9434 43.3966 28.062 42.7149 27.9835 42.0415C27.905 41.3681 27.6329 40.7319 27.2001 40.21L26.9781 39.968L22.5181 35.52C23.838 33.2499 24.3013 30.5815 23.8201 28ZM13.0001 21C14.7098 21.0001 16.3841 21.4871 17.8271 22.4042C19.2701 23.3213 20.422 24.6303 21.148 26.1783C21.874 27.7262 22.1441 29.4489 21.9266 31.1447C21.7092 32.8405 21.0132 34.4394 19.9201 35.754L25.5661 41.382C25.8327 41.6497 25.9884 42.0081 26.0022 42.3856C26.0161 42.7631 25.8869 43.132 25.6406 43.4184C25.3944 43.7049 25.0491 43.8878 24.6737 43.9308C24.2984 43.9737 23.9207 43.8734 23.6161 43.65L23.4461 43.506L17.6401 37.714C16.4513 38.4285 15.1134 38.8586 13.7309 38.9706C12.3485 39.0826 10.9588 38.8736 9.67046 38.3599C8.3821 37.8462 7.22991 37.0417 6.30385 36.0091C5.37778 34.9765 4.70289 33.7439 4.33187 32.4075C3.96086 31.071 3.90375 29.6669 4.16502 28.3047C4.42628 26.9425 4.99885 25.6592 5.83801 24.5548C6.67717 23.4505 7.76022 22.555 9.00261 21.9384C10.245 21.3218 11.6131 21.0006 13.0001 21ZM13.0001 24C11.4088 24 9.88267 24.6322 8.75745 25.7574C7.63223 26.8826 7.00009 28.4087 7.00009 30C7.00009 31.5913 7.63223 33.1174 8.75745 34.2427C9.88267 35.3679 11.4088 36 13.0001 36C14.5914 36 16.1175 35.3679 17.2427 34.2427C18.3679 33.1174 19.0001 31.5913 19.0001 30C19.0001 28.4087 18.3679 26.8826 17.2427 25.7574C16.1175 24.6322 14.5914 24 13.0001 24ZM28.0001 4.01001C29.3133 4.01001 30.6137 4.26867 31.8269 4.77121C33.0402 5.27376 34.1426 6.01036 35.0712 6.93894C35.9997 7.86753 36.7363 8.96992 37.2389 10.1832C37.7414 11.3964 38.0001 12.6968 38.0001 14.01C38.0001 15.3232 37.7414 16.6236 37.2389 17.8368C36.7363 19.0501 35.9997 20.1525 35.0712 21.0811C34.1426 22.0097 33.0402 22.7463 31.8269 23.2488C30.6137 23.7514 29.3133 24.01 28.0001 24.01C25.3479 24.01 22.8044 22.9564 20.929 21.0811C19.0537 19.2057 18.0001 16.6622 18.0001 14.01C18.0001 11.3578 19.0537 8.81431 20.929 6.93894C22.8044 5.06358 25.3479 4.01001 28.0001 4.01001Z" fill="#E5CE68"/>
</svg>
