<svg width="48" height="48" viewBox="0 0 48 48" fill="none" xmlns="http://www.w3.org/2000/svg">
<path d="M24 4C12.9583 4 4 12.9583 4 24C4 35.0417 12.9583 44 24 44C35.0417 44 44 35.0417 44 24C44 12.9583 35.0417 4 24 4ZM23.375 35.6667C22.963 35.6667 22.5602 35.5445 22.2176 35.3156C21.875 35.0866 21.6079 34.7613 21.4503 34.3806C21.2926 33.9999 21.2513 33.581 21.3317 33.1769C21.4121 32.7728 21.6105 32.4016 21.9019 32.1102C22.1932 31.8188 22.5644 31.6204 22.9686 31.54C23.3727 31.4596 23.7916 31.5009 24.1723 31.6586C24.5529 31.8163 24.8783 32.0833 25.1072 32.4259C25.3361 32.7685 25.4583 33.1713 25.4583 33.5833C25.4583 34.1359 25.2388 34.6658 24.8481 35.0565C24.4574 35.4472 23.9275 35.6667 23.375 35.6667ZM26.8583 25.0417C25.1698 26.175 24.9375 27.2135 24.9375 28.1667C24.9375 28.5534 24.7839 28.9244 24.5104 29.1979C24.2369 29.4714 23.8659 29.625 23.4792 29.625C23.0924 29.625 22.7215 29.4714 22.448 29.1979C22.1745 28.9244 22.0208 28.5534 22.0208 28.1667C22.0208 25.8844 23.0708 24.0698 25.2313 22.6187C27.2396 21.2708 28.375 20.4167 28.375 18.5385C28.375 17.2615 27.6458 16.2917 26.1365 15.574C25.7812 15.4052 24.9906 15.2406 24.0177 15.2521C22.7969 15.2677 21.849 15.5594 21.1187 16.1469C19.7417 17.2552 19.625 18.4615 19.625 18.4792C19.6158 18.6707 19.5689 18.8585 19.4871 19.0319C19.4053 19.2053 19.2901 19.3609 19.1481 19.4898C19.0062 19.6187 18.8403 19.7183 18.6598 19.7831C18.4793 19.8478 18.2879 19.8764 18.0964 19.8672C17.9048 19.858 17.717 19.8111 17.5436 19.7293C17.3702 19.6475 17.2146 19.5323 17.0858 19.3903C16.9569 19.2484 16.8572 19.0824 16.7924 18.902C16.7277 18.7215 16.6991 18.5301 16.7083 18.3385C16.7198 18.0854 16.8958 15.8052 19.2885 13.8802C20.5292 12.8823 22.1073 12.3635 23.976 12.3406C25.299 12.325 26.5417 12.549 27.3844 12.9469C29.9062 14.1396 31.2917 16.1281 31.2917 18.5385C31.2917 22.0625 28.9365 23.6448 26.8583 25.0417Z" fill="#E5CE68"/>
</svg>
