<svg width="48" height="48" viewBox="0 0 48 48" fill="none" xmlns="http://www.w3.org/2000/svg">
<path d="M21.5311 5.75554C22.0151 5.27177 22.6713 5 23.3556 5C24.0398 5 24.6961 5.27177 25.18 5.75554L31.0971 11.6727V8.33607C31.0971 7.99387 31.2331 7.66568 31.475 7.42371C31.717 7.18174 32.0452 7.0458 32.3874 7.0458H34.9679C35.3101 7.0458 35.6383 7.18174 35.8803 7.42371C36.1222 7.66568 36.2582 7.99387 36.2582 8.33607V16.8337L42.3327 22.9057C42.4527 23.0257 42.5479 23.1681 42.6128 23.3248C42.6777 23.4816 42.7111 23.6496 42.7111 23.8192C42.7111 23.9889 42.6777 24.1569 42.6128 24.3136C42.5479 24.4703 42.4527 24.6128 42.3327 24.7327C42.2128 24.8527 42.0704 24.9478 41.9136 25.0128C41.7569 25.0777 41.5889 25.1111 41.4192 25.1111C41.2496 25.1111 41.0816 25.0777 40.9248 25.0128C40.7681 24.9478 40.6257 24.8527 40.5057 24.7327L23.3556 7.57997L6.2054 24.7327C5.96312 24.975 5.63452 25.1111 5.29189 25.1111C4.94926 25.1111 4.62066 24.975 4.37839 24.7327C4.13611 24.4904 4 24.1618 4 23.8192C4 23.4766 4.13611 23.148 4.37839 22.9057L21.5311 5.75554Z" fill="#E5CE68"/>
<path d="M31.2784 25.2308C30.5541 24.8543 29.7293 24.7165 28.9219 24.837C28.1146 24.9575 27.366 25.3301 26.7831 25.9017L26.7315 25.9559C26.1595 26.5384 25.7864 27.2869 25.6654 28.0942C25.5445 28.9016 25.6819 29.7266 26.058 30.4512C25.274 30.6994 24.5895 31.191 24.1036 31.8545C23.6178 32.518 23.3559 33.3189 23.3559 34.1413C23.3559 34.9637 23.6178 35.7647 24.1036 36.4281C24.5895 37.0916 25.274 37.5832 26.058 37.8315C25.6176 38.6821 25.5073 39.6655 25.7483 40.5926H11.7438C10.7172 40.5926 9.73269 40.1848 9.00677 39.4589C8.28086 38.733 7.87305 37.7484 7.87305 36.7218V25.8656L23.3562 10.3824L35.5466 22.5728C34.6352 22.4351 33.7046 22.6272 32.9222 23.1144C32.1397 23.6016 31.5569 24.3521 31.2784 25.2308Z" fill="#E5CE68"/>
<path d="M36.6667 26.6784L36.5557 26.2965C36.0886 24.7146 33.8487 24.7146 33.3817 26.2965L33.2707 26.6784C33.2014 26.9153 33.0799 27.1337 32.9151 27.3174C32.7502 27.5012 32.5463 27.6457 32.3183 27.7402C32.0903 27.8348 31.844 27.877 31.5976 27.8639C31.3511 27.8507 31.1107 27.7825 30.894 27.6642L30.5431 27.4732C29.0954 26.6836 27.511 28.268 28.298 29.7157L28.4916 30.0666C28.6094 30.2832 28.6772 30.5233 28.6902 30.7695C28.7031 31.0157 28.6607 31.2616 28.5662 31.4893C28.4716 31.717 28.3273 31.9206 28.1438 32.0852C27.9604 32.2499 27.7424 32.3713 27.5058 32.4407L27.1239 32.5569C25.542 33.0213 25.542 35.2612 27.1239 35.7283L27.5058 35.8393C27.7427 35.9086 27.9611 36.0301 28.1448 36.1949C28.3286 36.3597 28.473 36.5636 28.5676 36.7916C28.6622 37.0196 28.7044 37.2659 28.6913 37.5124C28.6781 37.7589 28.6099 37.9993 28.4916 38.2159L28.3006 38.5669C27.511 40.0146 29.0954 41.599 30.5431 40.812L30.894 40.6184C31.1106 40.5006 31.3507 40.4327 31.5969 40.4198C31.8431 40.4069 32.089 40.4493 32.3167 40.5438C32.5444 40.6384 32.748 40.7827 32.9126 40.9661C33.0773 41.1496 33.1987 41.3676 33.2681 41.6042L33.3842 41.9887C33.8487 43.568 36.0886 43.568 36.5557 41.9887L36.6667 41.6016C36.7366 41.3651 36.8585 41.1473 37.0236 40.9642C37.1886 40.781 37.3926 40.6371 37.6206 40.5431C37.8485 40.449 38.0946 40.4072 38.3408 40.4207C38.587 40.4342 38.827 40.5026 39.0433 40.621L39.3943 40.812C40.842 41.599 42.4264 40.0146 41.6393 38.5669L41.4458 38.2159C41.328 37.9994 41.2601 37.7592 41.2472 37.5131C41.2343 37.2669 41.2767 37.021 41.3712 36.7933C41.4658 36.5656 41.6101 36.362 41.7935 36.1974C41.977 36.0327 42.195 35.9113 42.4316 35.8419L42.8161 35.7283C44.3953 35.2612 44.3953 33.0213 42.8161 32.5543L42.429 32.4433C42.1925 32.3734 41.9747 32.2515 41.7916 32.0864C41.6084 31.9213 41.4645 31.7174 41.3705 31.4894C41.2764 31.2615 41.2346 31.0154 41.2481 30.7692C41.2616 30.523 41.33 30.2829 41.4484 30.0666L41.6393 29.7157C42.4264 28.268 40.842 26.6836 39.3943 27.4706L39.0433 27.6642C38.8268 27.782 38.5866 27.8499 38.3405 27.8628C38.0943 27.8757 37.8483 27.8333 37.6207 27.7388C37.393 27.6442 37.1894 27.4999 37.0248 27.3165C36.8601 27.133 36.7387 26.915 36.6693 26.6784H36.6667ZM34.9687 38.0121C34.4604 38.0121 33.957 37.912 33.4874 37.7174C33.0178 37.5229 32.5911 37.2378 32.2316 36.8784C31.8722 36.5189 31.5871 36.0922 31.3925 35.6226C31.198 35.153 31.0979 34.6496 31.0979 34.1413C31.0979 33.633 31.198 33.1296 31.3925 32.66C31.5871 32.1904 31.8722 31.7637 32.2316 31.4042C32.5911 31.0448 33.0178 30.7597 33.4874 30.5652C33.957 30.3706 34.4604 30.2705 34.9687 30.2705C35.9953 30.2705 36.9798 30.6783 37.7057 31.4042C38.4317 32.1302 38.8395 33.1147 38.8395 34.1413C38.8395 35.1679 38.4317 36.1524 37.7057 36.8784C36.9798 37.6043 35.9953 38.0121 34.9687 38.0121Z" fill="#E5CE68"/>
</svg>
