<?xml version="1.0" standalone="no"?>
<!DOCTYPE svg PUBLIC "-//W3C//DTD SVG 20010904//EN"
 "http://www.w3.org/TR/2001/REC-SVG-20010904/DTD/svg10.dtd">
<svg version="1.0" xmlns="http://www.w3.org/2000/svg"
 width="1240.000000pt" height="1240.000000pt" viewBox="0 0 1240.000000 1240.000000"
 preserveAspectRatio="xMidYMid meet">
<metadata>
Created by potrace 1.14, written by Peter Selinger 2001-2017
</metadata>
<g transform="translate(0.000000,1240.000000) scale(0.100000,-0.100000)"
fill="#000000" stroke="none">
<path d="M4089 12379 c-6 -13 -15 -26 -19 -29 -28 -20 -237 -394 -347 -620
-46 -96 -96 -196 -109 -222 -14 -27 -23 -48 -20 -48 3 0 -3 -17 -14 -37 -20
-40 -130 -291 -134 -308 -2 -5 -9 -23 -15 -40 -39 -92 -42 -114 -27 -183 7
-31 71 -134 88 -140 4 -2 8 -8 8 -13 0 -7 33 -55 78 -114 4 -5 28 -39 52 -75
25 -36 50 -70 55 -77 12 -13 145 -207 160 -231 6 -9 14 -20 20 -24 5 -4 7 -9
5 -12 -3 -2 -45 18 -95 46 -49 27 -117 65 -150 83 -33 18 -80 44 -105 57 -186
103 -292 160 -295 157 -3 -4 -17 -75 -18 -96 0 -7 -4 -13 -9 -13 -5 0 -7 -4
-3 -9 3 -5 1 -30 -5 -56 -6 -25 -13 -62 -16 -81 -3 -20 -8 -45 -10 -55 -2 -11
-6 -27 -8 -38 -2 -10 -7 -35 -10 -55 -3 -20 -17 -91 -31 -159 -13 -67 -27
-139 -31 -161 -3 -21 -8 -48 -10 -60 -3 -11 -7 -32 -10 -46 -4 -24 -9 -50 -19
-100 -7 -33 -16 -86 -20 -119 -2 -14 -4 -26 -5 -26 -3 0 -22 -102 -22 -120 -2
-34 36 -86 93 -129 35 -26 71 -52 80 -59 18 -14 17 -14 298 -214 117 -84 210
-154 205 -154 -5 -1 -13 -1 -19 1 -5 1 -24 3 -42 6 -17 2 -74 11 -125 19 -115
20 -199 33 -258 41 -25 3 -56 8 -70 10 -14 3 -41 7 -60 10 -19 3 -57 9 -84 13
l-48 9 5 -182 c4 -99 9 -201 11 -226 3 -25 8 -72 11 -105 8 -100 16 -169 22
-185 2 -8 7 -35 9 -60 3 -25 6 -52 8 -60 1 -8 6 -31 10 -50 4 -19 8 -46 10
-60 2 -14 6 -32 9 -40 3 -8 8 -31 11 -50 5 -34 10 -57 21 -110 4 -14 8 -36 11
-50 31 -158 93 -296 168 -370 53 -53 132 -102 183 -114 77 -18 121 -26 177
-32 34 -3 64 -8 67 -10 4 -2 24 -6 45 -10 154 -22 214 -39 214 -59 0 -8 -8
-14 -17 -14 -10 0 -70 -13 -133 -31 -63 -17 -123 -33 -133 -35 -10 -2 -26 -6
-35 -9 -9 -3 -28 -7 -42 -10 -42 -9 -185 -47 -189 -52 -2 -2 15 -33 38 -69 22
-36 41 -70 41 -76 0 -5 5 -9 10 -9 6 0 10 -6 10 -13 0 -7 8 -22 18 -33 9 -10
23 -31 31 -46 8 -16 18 -28 23 -28 4 0 8 -5 8 -10 0 -11 177 -248 214 -285 11
-13 39 -44 61 -71 51 -62 296 -305 354 -353 25 -20 58 -48 75 -63 47 -43 175
-132 237 -165 64 -35 143 -60 215 -68 83 -10 118 -15 139 -19 11 -2 53 -10 93
-17 39 -7 72 -16 72 -20 0 -3 -48 -28 -106 -56 l-106 -50 286 -144 c157 -79
293 -149 301 -156 15 -10 10 -20 -35 -90 -28 -43 -73 -95 -98 -115 -26 -21
-59 -48 -73 -60 -50 -43 -146 -123 -221 -182 -13 -10 -54 -39 -93 -65 -38 -25
-73 -50 -77 -56 -4 -5 -8 -6 -8 -1 0 5 -8 2 -17 -7 -10 -8 -30 -19 -45 -22
-16 -4 -28 -11 -28 -15 0 -5 -10 -12 -22 -16 -20 -6 -107 -56 -133 -76 -134
-103 -226 -190 -283 -267 -15 -20 -29 -38 -32 -41 -7 -7 -62 -91 -76 -115 -6
-11 -28 -51 -49 -90 -38 -69 -147 -251 -210 -350 -17 -27 -69 -110 -115 -183
-78 -123 -96 -143 -114 -125 -3 4 -14 8 -22 9 -9 2 -39 8 -67 15 -56 13 -218
17 -288 6 -114 -18 -309 -96 -357 -143 -7 -8 -17 -14 -20 -14 -15 0 -149 -138
-182 -185 -19 -28 -38 -53 -43 -56 -5 -3 -8 -9 -8 -13 1 -3 -10 -27 -23 -54
-24 -47 -54 -130 -62 -167 -2 -11 -8 -43 -14 -71 -6 -27 -10 -63 -10 -80 0
-16 0 -45 0 -64 -1 -53 7 -148 13 -157 3 -5 -30 -2 -73 7 -81 16 -151 18 -230
6 -55 -8 -200 -58 -200 -68 0 -5 -6 -8 -13 -8 -39 0 -191 -133 -250 -219 -17
-26 -35 -49 -41 -53 -6 -4 -8 -8 -3 -8 4 0 -4 -21 -17 -48 -21 -42 -35 -83
-54 -162 -4 -14 -6 -79 -6 -145 1 -139 26 -232 91 -345 58 -101 182 -218 285
-268 47 -24 96 -45 109 -48 39 -9 54 -12 54 -14 0 -12 238 -19 280 -7 72 19
75 19 70 6 -3 -8 -7 -32 -9 -54 -3 -22 -7 -50 -10 -63 -3 -12 -1 -22 4 -22 4
0 4 -16 0 -34 -4 -19 -6 -37 -4 -39 2 -2 6 -20 9 -40 3 -20 7 -52 10 -69 12
-87 74 -234 137 -326 71 -103 212 -223 328 -279 117 -57 250 -84 390 -79 58 2
116 6 130 10 14 3 39 9 55 13 39 9 36 8 68 21 16 7 32 12 36 12 11 0 111 53
161 85 167 110 322 340 355 530 2 17 7 41 10 55 6 30 7 171 1 220 -7 57 -18
114 -23 123 -2 4 -7 19 -9 34 -3 15 -9 32 -13 38 -4 5 -16 30 -25 54 -15 39
-99 178 -115 191 -3 3 -11 12 -18 21 -11 14 116 15 1300 17 722 2 1746 4 2277
5 964 3 1067 0 1127 -31 10 -6 37 -15 61 -21 23 -7 42 -15 42 -19 0 -6 -124
-66 -140 -68 -3 0 -27 -11 -55 -24 -93 -44 -85 -1 -85 -460 l0 -408 135 1 c74
0 135 3 136 6 1 8 6 97 13 249 3 67 8 126 10 131 3 4 68 8 145 8 123 1 140 -1
139 -16 0 -9 3 -27 6 -41 4 -14 9 -41 12 -60 3 -19 9 -59 14 -89 6 -30 10 -55
10 -56 0 0 59 -1 130 -1 124 0 130 1 131 21 0 11 2 29 4 40 5 25 15 119 18
163 1 17 6 33 12 33 54 7 302 2 302 -6 1 -12 13 -228 18 -300 2 -27 3 -60 4
-72 1 -23 2 -23 134 -20 l132 2 1 423 1 422 -26 1 c-62 2 -117 11 -144 26 -50
25 -127 84 -127 97 0 6 28 24 63 40 51 23 78 29 148 31 48 1 92 5 97 9 6 3 13
3 15 -1 3 -5 56 -7 119 -7 108 1 116 3 193 38 137 64 159 74 182 80 29 9 43
54 40 135 -2 50 -8 75 -24 97 l-21 29 -1534 1 -1533 1 -65 37 c-36 21 -112 62
-170 92 -142 73 -162 85 -217 130 -131 106 -204 212 -253 366 -10 32 -16 58
-13 58 3 0 1 6 -5 12 -10 14 -14 315 -3 333 3 6 6 12 6 15 3 26 18 87 23 95 4
5 8 19 9 30 5 28 49 122 81 170 70 105 209 214 293 229 13 3 24 5 24 6 0 10
175 18 181 8 3 -4 9 -6 13 -4 15 9 172 -33 261 -71 8 -3 17 -7 20 -8 6 -2 26
-10 100 -41 75 -30 260 -95 289 -100 13 -3 40 -8 60 -12 20 -4 65 -4 101 0 36
5 81 10 100 13 19 2 35 4 35 5 0 1 12 4 60 14 6 1 16 5 23 9 6 5 12 6 12 3 0
-7 128 37 202 70 239 106 467 318 618 574 71 121 162 318 175 380 2 8 4 15 5
15 2 0 6 16 14 55 3 14 8 38 12 53 3 16 8 41 10 55 6 39 5 223 -1 252 -28 144
-37 174 -75 260 -41 95 -58 124 -143 239 -84 114 -272 305 -382 387 -97 72
-140 100 -255 162 -25 13 -50 28 -55 32 -17 14 -453 230 -465 230 -5 0 -10 5
-10 10 0 6 -5 10 -12 10 -10 0 -59 22 -204 92 -82 39 -113 79 -109 138 9 113
16 158 42 285 9 44 16 86 16 93 0 6 4 12 9 12 5 0 7 4 3 10 -7 12 89 302 113
337 9 15 15 27 13 28 -2 0 12 34 32 75 20 41 35 79 35 84 0 5 4 12 9 15 5 3
28 40 53 81 24 41 47 77 52 78 4 2 8 8 8 13 0 10 116 178 134 194 6 6 29 32
51 60 22 27 60 73 85 100 119 135 233 271 275 329 11 16 25 33 30 40 30 32
159 224 214 316 34 58 66 112 71 120 18 30 160 325 160 333 0 3 13 34 29 69
74 160 201 519 257 723 2 6 5 19 7 30 3 11 12 45 21 75 8 30 18 66 20 80 3 14
19 86 37 160 17 74 32 144 34 155 2 11 6 31 9 45 2 14 9 45 15 70 5 25 12 61
16 80 3 19 8 46 10 60 12 59 16 78 25 135 5 33 12 71 15 85 6 29 13 67 20 113
3 17 10 59 16 92 6 33 13 74 16 90 3 17 10 60 17 98 12 60 11 67 -3 68 -26 3
-94 -2 -121 -7 -14 -3 -34 -7 -45 -10 -11 -2 -56 -13 -100 -25 -44 -11 -89
-22 -100 -24 -11 -2 -34 -8 -52 -13 -17 -6 -34 -8 -37 -4 -3 3 -6 1 -6 -4 0
-5 -8 -10 -17 -10 -10 -1 -29 -4 -43 -7 -14 -3 -34 -8 -45 -11 -11 -2 -85 -21
-165 -41 -80 -20 -152 -38 -160 -40 -8 -2 -89 -22 -180 -45 -91 -23 -171 -43
-177 -43 -7 0 -13 -4 -13 -9 0 -5 -4 -7 -8 -4 -4 3 -61 -10 -125 -28 -64 -18
-117 -31 -117 -28 0 2 -7 -1 -15 -8 -8 -6 -19 -9 -25 -5 -5 3 -10 1 -10 -6 0
-7 -3 -10 -6 -6 -3 3 -18 2 -32 -3 -34 -11 -235 -74 -242 -75 -51 -14 -67 -19
-75 -24 -5 -3 -14 -6 -20 -8 -28 -6 -191 -67 -200 -74 -5 -5 -15 -9 -22 -9 -7
0 -42 -13 -78 -30 -36 -16 -68 -30 -70 -30 -9 0 -280 -132 -285 -138 -3 -4
-12 -8 -20 -10 -8 -2 -22 -9 -30 -15 -8 -7 -31 -21 -50 -31 -19 -11 -44 -24
-54 -30 -43 -24 -233 -151 -305 -204 -124 -91 -155 -128 -221 -261 -33 -66
-60 -123 -60 -126 0 -3 -11 -28 -25 -57 -14 -28 -25 -57 -25 -62 0 -6 -6 -23
-14 -38 -17 -32 -113 -314 -120 -351 -2 -15 -7 -30 -10 -35 -3 -5 -7 -19 -9
-33 -3 -13 -12 -52 -21 -85 -9 -34 -18 -77 -20 -95 -3 -19 -5 -34 -6 -34 -3 0
-6 -16 -31 -175 -5 -35 -12 -85 -14 -110 -2 -25 -7 -81 -11 -125 -7 -78 -8
-360 -1 -498 1 -38 0 -70 -3 -72 -3 -2 -17 28 -31 67 -13 38 -27 72 -31 75 -5
2 -8 10 -8 18 0 8 -5 26 -12 42 -6 15 -12 30 -13 33 -1 3 -10 32 -20 65 -11
33 -20 63 -21 68 -1 4 -2 8 -4 10 -1 1 -3 9 -5 17 -1 8 -15 62 -30 120 -15 58
-29 116 -31 130 -2 14 -6 36 -9 50 -9 44 -36 233 -43 310 -8 92 -8 605 1 830
15 390 18 377 -106 466 -45 32 -86 62 -92 66 -210 164 -313 255 -499 443 -170
172 -197 201 -252 270 -21 28 -43 53 -47 56 -4 3 -18 19 -30 36 -12 17 -54 73
-93 124 -39 52 -86 117 -104 144 -19 28 -37 52 -42 53 -4 2 -8 7 -8 12 0 5
-22 41 -48 82 -27 40 -60 93 -74 118 -14 25 -49 85 -77 133 -61 104 -192 367
-244 487 -107 251 -104 244 -118 219z m33 -789 c20 -36 44 -81 54 -100 11 -19
22 -36 27 -38 4 -2 7 -8 7 -14 0 -5 12 -28 28 -51 15 -23 32 -51 39 -62 7 -11
30 -49 53 -85 23 -36 46 -74 53 -85 7 -11 14 -22 17 -25 3 -3 36 -48 72 -100
59 -85 159 -215 228 -294 164 -190 458 -478 685 -671 203 -173 221 -213 199
-455 -16 -182 -10 -613 12 -805 13 -114 20 -166 31 -230 3 -22 7 -47 9 -55 7
-51 16 -97 20 -109 2 -8 7 -30 10 -50 14 -94 84 -346 151 -551 65 -196 229
-563 321 -718 18 -29 32 -57 32 -62 0 -6 5 -10 10 -10 6 0 10 -4 10 -10 0 -10
171 -269 193 -292 7 -7 25 -31 41 -53 101 -136 361 -413 495 -525 29 -25 65
-55 80 -68 36 -31 133 -77 206 -97 33 -9 85 -23 115 -31 30 -9 62 -17 70 -19
8 -2 71 -22 140 -45 69 -23 132 -43 140 -45 19 -5 165 -58 245 -90 310 -123
589 -271 806 -429 44 -32 57 -46 44 -47 -11 0 -93 -1 -182 -1 -89 0 -181 -4
-205 -8 -24 -5 -65 -11 -92 -15 -27 -3 -53 -8 -58 -11 -4 -3 -16 -7 -25 -9
-33 -6 -148 -47 -158 -56 -5 -5 -15 -9 -22 -9 -8 0 -41 -18 -74 -40 -33 -22
-64 -40 -69 -40 -5 0 -10 -3 -12 -8 -1 -4 -16 -18 -33 -30 -97 -75 -216 -211
-277 -317 -50 -85 -109 -211 -142 -299 -41 -109 -97 -320 -112 -421 -2 -16 -6
-37 -9 -45 -2 -8 -7 -35 -10 -60 -10 -76 -11 -80 -21 -89 -5 -5 -38 -19 -74
-32 -36 -13 -76 -29 -90 -36 -14 -7 -28 -13 -32 -13 -20 0 -345 -157 -354
-171 -3 -5 -9 -7 -14 -4 -4 3 -13 -2 -20 -10 -7 -8 -16 -15 -21 -15 -5 0 -26
-11 -47 -24 -111 -70 -188 -120 -192 -125 -3 -3 -23 -19 -45 -35 -65 -47 -219
-208 -250 -262 -15 -27 -31 -51 -35 -54 -7 -5 -52 -124 -57 -150 -2 -8 -5 -48
-7 -88 -3 -69 -1 -76 28 -115 17 -23 35 -50 41 -59 5 -9 30 -50 54 -90 86
-140 149 -282 189 -425 l20 -73 -109 4 c-60 1 -111 5 -114 7 -2 3 -7 20 -10
39 -3 19 -10 50 -15 67 -4 18 -6 33 -3 33 3 0 0 7 -7 15 -7 8 -9 15 -6 15 16
0 -66 140 -124 214 -16 20 -123 136 -203 218 -26 27 -59 67 -72 88 -29 47 -39
124 -20 166 7 16 20 45 29 66 9 20 16 41 16 47 0 6 5 11 10 11 6 0 10 6 10 13
0 6 51 114 113 238 l112 226 -22 17 c-12 9 -26 16 -32 16 -5 0 -11 3 -13 8 -4
9 -96 72 -106 72 -4 0 -18 9 -31 19 -24 18 -24 18 -185 -65 -156 -80 -163 -82
-175 -62 -11 17 -5 29 50 101 35 45 73 96 85 112 13 17 32 41 43 55 35 44 165
213 201 263 19 27 45 59 58 72 12 13 22 27 22 30 0 4 6 12 13 20 52 55 54 48
-35 132 -45 43 -92 90 -106 105 -14 16 -29 28 -32 28 -6 0 -90 -60 -190 -138
-33 -25 -207 -134 -275 -172 -88 -49 -345 -176 -375 -185 -3 -1 -22 -9 -44
-18 -21 -9 -44 -17 -50 -17 -7 0 -16 -4 -21 -9 -9 -8 -181 -78 -210 -85 -5 -2
-17 -6 -25 -9 -8 -3 -45 -17 -82 -31 l-66 -24 36 60 c73 119 82 134 104 176
12 23 25 42 30 42 4 0 8 5 8 10 0 11 33 60 63 94 9 11 17 24 17 28 0 5 4 7 8
4 4 -2 17 9 27 25 11 16 28 32 38 35 9 3 17 9 17 14 0 8 140 100 153 100 7 0
180 100 187 109 3 3 28 22 55 41 28 19 52 38 53 42 2 4 8 8 14 8 8 0 202 151
218 170 3 3 28 23 55 45 66 51 177 166 195 202 8 15 18 30 21 33 14 11 89 170
103 221 23 79 22 129 -3 181 -20 42 -89 118 -108 118 -9 1 -53 36 -53 43 0 2
26 20 58 40 70 43 171 141 235 227 26 36 55 73 63 83 8 9 14 19 14 22 0 3 20
36 44 73 24 37 68 106 99 154 l55 86 -31 -10 c-18 -5 -36 -10 -42 -11 -5 -2
-14 -5 -20 -8 -8 -5 -76 -30 -95 -34 -9 -3 -41 -16 -148 -62 -57 -24 -111 -46
-120 -48 -9 -2 -42 -11 -72 -20 -49 -14 -76 -20 -145 -30 -11 -2 -20 -4 -20
-5 0 -1 -25 -4 -55 -7 -119 -12 -359 -5 -460 13 -14 2 -41 7 -60 9 -19 3 -46
8 -60 11 -14 3 -36 8 -50 10 -14 3 -37 7 -52 10 -15 3 -29 5 -30 3 -11 -8 -93
49 -140 98 -31 32 -183 181 -336 331 -154 150 -282 282 -285 292 -4 16 4 22
52 35 58 16 198 66 260 93 20 9 39 15 43 14 3 -1 12 5 18 13 7 8 21 15 31 15
10 0 21 4 24 10 3 5 23 17 43 27 20 9 42 21 47 25 6 5 33 23 60 40 101 65 232
180 318 280 99 116 263 385 245 403 -6 6 -135 -42 -266 -99 -45 -19 -83 -35
-85 -35 -1 0 -15 -5 -31 -11 -32 -12 -180 -51 -211 -56 -11 -2 -31 -5 -45 -9
-128 -29 -519 -22 -623 11 -10 3 -32 8 -50 10 -92 14 -220 48 -256 70 -38 22
-47 46 -80 209 -6 28 -14 64 -17 80 -4 17 -8 35 -9 40 -2 6 -10 46 -19 90 -9
44 -19 91 -22 105 -3 14 -7 36 -9 50 -2 14 -4 25 -5 25 -1 0 -3 11 -6 25 -2
14 -8 45 -14 70 -20 93 -22 106 -25 163 l-2 57 36 -4 c77 -11 117 -17 141 -21
116 -23 418 -22 543 0 15 3 55 10 90 16 116 20 408 125 457 164 8 7 35 23 60
36 37 20 134 84 175 116 43 33 113 91 132 109 l23 21 -277 0 c-153 -1 -303 2
-333 6 -62 7 -197 34 -220 44 -8 3 -19 7 -25 8 -58 15 -298 122 -303 137 -2 4
-8 6 -13 2 -5 -3 -9 0 -9 5 0 6 -3 10 -8 9 -7 -3 -223 121 -232 133 -3 3 -15
9 -27 13 -13 4 -23 12 -23 17 0 5 -5 9 -11 9 -22 0 -98 84 -119 132 -17 39
-20 62 -16 102 5 42 11 80 15 94 1 1 1 4 1 7 1 3 7 23 15 45 8 22 14 43 14 45
0 3 2 18 5 33 6 31 12 62 26 147 14 82 19 107 23 111 3 4 192 -86 269 -127 10
-5 22 -9 28 -9 6 0 29 -8 53 -19 40 -18 162 -57 162 -52 0 1 14 -3 30 -9 17
-7 41 -14 55 -17 43 -8 55 -11 55 -13 0 -2 27 -6 99 -15 33 -4 69 -9 80 -11
26 -5 238 -5 286 1 19 2 62 6 94 10 33 3 68 11 78 16 10 5 18 8 18 5 0 -2 30
4 68 15 37 11 75 22 85 24 9 2 22 7 27 10 5 3 18 8 27 10 10 2 36 11 58 21 22
10 44 17 48 16 5 -2 7 3 5 9 -2 6 -55 32 -118 56 -153 60 -143 56 -240 88 -92
30 -233 93 -238 107 -2 4 -9 8 -16 8 -14 0 -119 71 -181 122 -72 60 -225 213
-225 225 0 7 -4 13 -9 13 -12 0 -167 202 -206 268 -11 17 -23 32 -27 32 -4 0
-8 5 -8 11 0 6 -14 30 -31 55 -20 30 -29 53 -26 72 4 31 2 25 80 202 32 74 60
141 61 148 1 7 8 18 14 24 7 7 12 18 12 25 0 8 8 28 17 46 9 18 17 34 18 37 0
3 24 60 54 128 50 112 55 120 66 99 6 -12 28 -51 47 -87z m5324 -952 c-3 -18
-14 -76 -25 -128 -30 -145 -32 -153 -37 -180 -2 -14 -15 -74 -29 -135 -14 -60
-27 -121 -29 -135 -2 -14 -18 -79 -36 -145 -17 -66 -33 -128 -35 -138 -2 -9
-7 -22 -10 -27 -4 -6 -9 -23 -11 -38 -6 -29 -49 -169 -67 -217 -6 -16 -12 -34
-12 -40 0 -12 -45 -146 -54 -160 -3 -5 -6 -14 -7 -20 -3 -15 -92 -241 -119
-300 -13 -27 -37 -81 -55 -120 -18 -38 -36 -79 -41 -90 -5 -11 -18 -33 -28
-50 -10 -16 -16 -33 -14 -37 2 -5 0 -8 -5 -8 -6 0 -15 -13 -20 -29 -6 -17 -38
-73 -71 -126 -34 -54 -61 -100 -61 -104 0 -3 -12 -17 -25 -30 -14 -12 -22 -27
-19 -32 3 -5 1 -9 -4 -9 -5 0 -22 -19 -37 -42 -29 -43 -200 -257 -252 -314
-15 -17 -55 -62 -88 -99 -33 -38 -65 -73 -70 -79 -27 -27 -176 -227 -210 -281
-97 -152 -171 -292 -234 -439 -52 -122 -119 -321 -136 -406 -2 -8 -4 -15 -5
-15 -1 0 -3 -7 -5 -15 -1 -8 -8 -42 -15 -75 -7 -33 -14 -69 -16 -80 -1 -11 -3
-20 -4 -20 -1 0 -3 -11 -5 -25 -4 -24 -6 -42 -20 -145 -4 -27 -9 -52 -10 -53
-4 -4 -110 16 -135 26 -8 3 -20 6 -26 7 -25 6 -130 61 -137 72 -4 7 -13 13
-18 13 -16 0 -107 90 -147 145 -20 28 -39 52 -42 55 -9 7 -71 96 -95 135 -85
140 -108 180 -144 250 -67 132 -99 204 -106 235 -4 17 -11 30 -17 30 -6 0 -9
3 -6 6 4 3 -5 36 -18 72 -23 64 -57 178 -69 232 -19 89 -35 174 -39 207 -2 21
-5 38 -6 38 -1 0 -3 16 -5 35 -1 19 -6 73 -10 120 -15 166 -6 464 18 605 3 17
9 50 12 75 8 48 10 58 25 135 31 162 68 291 141 490 38 105 69 196 69 203 0 7
5 12 10 12 6 0 10 8 10 19 0 35 73 164 119 211 82 84 315 229 563 350 56 28
115 58 131 66 15 8 27 12 27 8 0 -4 9 1 21 12 12 10 22 18 23 16 1 -4 11 0
156 58 108 43 204 79 230 85 8 2 33 11 55 20 22 10 51 19 64 22 14 2 29 7 35
11 6 3 17 8 24 9 19 5 36 10 52 16 19 7 182 58 195 61 31 7 103 28 125 37 14
5 34 11 45 13 17 3 96 24 155 41 8 2 51 14 95 25 44 11 87 23 95 27 8 3 24 7
35 8 11 1 74 17 140 35 66 17 127 34 135 36 8 2 32 8 53 13 21 5 41 12 44 15
4 3 15 6 25 6 16 0 18 -5 14 -32z m-756 -5692 c44 -6 64 -9 125 -22 17 -3 66
-17 110 -31 44 -14 94 -27 110 -30 44 -7 124 -53 146 -84 11 -15 26 -47 35
-71 19 -52 26 -219 13 -303 -26 -167 -108 -342 -238 -505 -65 -82 -77 -92 -97
-86 -20 6 -21 20 -10 106 2 19 7 64 11 100 3 36 10 81 15 100 5 19 12 51 15
70 3 19 8 42 10 50 11 38 17 91 20 160 3 87 -10 121 -57 150 -64 38 -194 -3
-266 -85 -92 -105 -105 -230 -39 -370 21 -44 46 -91 55 -105 9 -14 17 -27 17
-30 0 -3 8 -16 17 -30 9 -14 41 -67 71 -119 l56 -94 -37 -33 c-20 -18 -52 -41
-69 -51 -18 -10 -33 -21 -33 -25 0 -5 -5 -8 -11 -8 -6 0 -24 -9 -40 -21 -16
-11 -29 -18 -29 -14 0 3 -14 -2 -31 -11 -41 -21 -119 -44 -213 -64 -60 -12
-157 -5 -194 14 -19 10 -43 19 -55 22 -11 2 -24 9 -29 16 -4 7 -8 10 -8 6 0
-3 -46 14 -102 38 -118 51 -131 57 -178 77 -171 72 -193 84 -186 96 2 3 7 31
10 61 9 82 34 230 45 268 5 18 10 36 11 40 3 23 14 63 28 107 9 28 16 52 17
55 1 13 62 152 93 210 64 120 151 231 227 285 15 11 33 26 41 33 35 33 192
101 274 117 8 2 15 4 15 5 0 1 22 4 50 6 27 3 51 6 52 8 5 5 188 -1 233 -8z
m-3630 -1322 c0 -3 -7 -18 -15 -32 -8 -15 -55 -115 -104 -222 l-89 -195 284
-3 c156 -1 284 -4 284 -7 0 -2 -5 -16 -11 -32 -6 -15 -12 -35 -14 -43 -2 -8
-10 -34 -19 -58 -8 -23 -15 -45 -15 -47 0 -3 -5 -30 -11 -60 -13 -61 -15 -171
-6 -225 4 -19 21 -65 39 -103 25 -53 50 -84 116 -145 46 -42 113 -113 150
-157 36 -44 69 -81 74 -83 15 -7 6 -20 -35 -48 -50 -34 -82 -66 -115 -116 -29
-44 -38 -83 -37 -165 l1 -63 -31 -1 c-17 0 -364 0 -771 0 -611 -1 -739 2 -737
13 2 7 8 15 13 16 5 2 9 8 9 13 0 6 -6 7 -12 3 -9 -5 -9 -3 1 9 7 9 16 15 20
12 10 -5 27 16 78 95 78 120 148 284 168 390 33 175 14 368 -51 515 -10 22
-17 43 -16 48 1 4 -3 7 -8 7 -6 0 -10 4 -10 10 0 24 -81 132 -155 206 l-80 81
105 37 c58 21 110 38 115 40 6 1 15 5 21 8 9 6 144 55 169 61 6 2 20 9 33 15
12 7 22 10 22 6 0 -3 7 -1 15 6 8 7 15 10 15 7 0 -3 32 7 70 23 39 16 70 26
70 23 0 -3 7 0 15 7 8 7 15 9 15 6 0 -4 9 -2 21 4 11 6 71 29 132 51 62 22
119 42 127 46 24 10 144 52 153 52 4 1 7 -2 7 -5z m-1508 -550 c18 -4 38 -8
43 -9 25 -3 107 -42 160 -77 144 -93 241 -293 230 -477 -17 -279 -253 -502
-533 -503 -220 -1 -414 127 -499 328 -84 196 -40 428 109 584 124 131 323 193
490 154z m3014 8 c-8 -14 -46 -165 -53 -212 -8 -55 -8 -252 1 -300 3 -19 8
-48 12 -65 3 -16 7 -36 7 -42 0 -7 4 -13 8 -13 5 0 6 -6 3 -14 -3 -7 4 -37 15
-65 36 -95 -4 -35 -58 87 -74 164 -76 170 -99 238 -29 83 -34 111 -34 167 0
55 25 89 132 175 65 52 75 59 66 44z m-4052 -961 c7 -6 15 -8 18 -5 13 12 128
-55 180 -106 116 -113 160 -274 118 -432 -7 -24 -17 -49 -22 -55 -6 -7 -8 -13
-4 -13 7 0 -20 -45 -39 -66 -5 -6 -17 -22 -25 -34 -22 -32 -127 -104 -185
-125 -52 -20 -187 -27 -252 -13 -135 27 -291 183 -318 318 -10 45 -14 182 -6
195 3 6 7 17 8 26 5 35 45 114 81 159 54 70 168 142 247 156 16 3 31 7 32 8 8
8 156 -4 167 -13z m1036 -745 c260 -52 442 -283 434 -551 -8 -285 -247 -521
-524 -518 -68 1 -109 5 -150 16 -47 12 -100 31 -100 36 0 3 -15 13 -32 21 -39
17 -44 21 -106 82 -62 62 -64 64 -100 133 -47 90 -64 161 -61 257 2 81 25 190
41 196 4 2 6 7 3 12 -7 12 66 119 114 168 36 36 133 105 151 108 3 0 23 8 44
17 22 10 41 16 43 13 2 -2 19 2 38 9 37 12 145 13 205 1z"/>
</g>
</svg>
